<svg width="22" height="22" viewBox="0 0 22 22" fill="none" xmlns="http://www.w3.org/2000/svg">
<path d="M5.36981 6.44186C5.34671 5.85883 5.8256 5.37994 6.40863 5.40304L11.9706 5.62346C12.8418 5.65799 13.2547 6.71324 12.6381 7.32979L7.29656 12.6713C6.68001 13.2879 5.62476 12.8751 5.59024 12.0038L5.36981 6.44186Z" fill="black"/>
<path d="M16.3949 14.7556C16.4191 15.3667 16.4312 15.6723 16.3162 15.9022C16.2195 16.0958 16.0625 16.2527 15.869 16.3494C15.6391 16.4644 15.3335 16.4523 14.7224 16.4281L11.2131 16.289C10.0389 16.2425 9.45177 16.2192 9.181 15.9689C8.95602 15.7609 8.83881 15.4613 8.86294 15.1558C8.89198 14.7882 9.30745 14.3728 10.1384 13.5418L13.5086 10.1716C14.3396 9.34066 14.755 8.9252 15.1226 8.89615C15.4281 8.87202 15.7277 8.98924 15.9357 9.21422C16.186 9.48499 16.2093 10.0721 16.2558 11.2463L16.3949 14.7556Z" fill="black"/>
</svg>
