<svg width="18" height="18" viewBox="0 0 18 18" fill="none" xmlns="http://www.w3.org/2000/svg">
<path d="M4.39348 5.27061C4.37458 4.79359 4.7664 4.40177 5.24343 4.42067L9.79413 4.60101C10.5069 4.62926 10.8448 5.49265 10.3403 5.9971L5.96991 10.3674C5.46546 10.8719 4.60208 10.5342 4.57383 9.82129L4.39348 5.27061Z" fill="black"/>
<path d="M13.414 12.0728C13.4338 12.5728 13.4437 12.8228 13.3496 13.0109C13.2705 13.1693 13.142 13.2977 12.9837 13.3768C12.7956 13.4709 12.5456 13.461 12.0456 13.4412L9.17435 13.3274C8.21365 13.2893 7.73327 13.2703 7.51173 13.0655C7.32765 12.8953 7.23175 12.6502 7.2515 12.4002C7.27526 12.0994 7.61519 11.7596 8.29505 11.0797L11.0525 8.32222C11.7324 7.64236 12.0723 7.30244 12.373 7.27867C12.623 7.25892 12.8681 7.35483 13.0383 7.53891C13.2431 7.76045 13.2622 8.24081 13.3002 9.20152L13.414 12.0728Z" fill="black"/>
</svg>
