<svg width="18" height="18" viewBox="0 0 18 18" fill="none" xmlns="http://www.w3.org/2000/svg">
<path d="M12.2541 4.29956L4.29954 12.2542C3.90015 12.6536 3.90015 13.3011 4.29954 13.7005C4.69892 14.0998 5.34645 14.0998 5.74583 13.7005L13.7004 5.74585C14.0998 5.34647 14.0998 4.69894 13.7004 4.29956C13.3011 3.90017 12.6535 3.90017 12.2541 4.29956Z" fill="black" fill-opacity="0.65"/>
<path d="M13.7005 12.2542L5.74584 4.29954C5.34646 3.90016 4.69893 3.90016 4.29954 4.29954C3.90016 4.69892 3.90016 5.34645 4.29954 5.74584L12.2542 13.7004C12.6535 14.0998 13.3011 14.0998 13.7005 13.7004C14.0998 13.3011 14.0998 12.6535 13.7005 12.2542Z" fill="black" fill-opacity="0.65"/>
</svg>
