<svg width="21" height="21" viewBox="0 0 21 21" fill="none" xmlns="http://www.w3.org/2000/svg">
<path d="M10.3882 9.38022C10.4113 9.96324 9.93237 10.4421 9.34934 10.419L5.12213 10.2515C4.25089 10.217 3.83808 9.16173 4.45463 8.54518L8.51431 4.4855C9.13086 3.86895 10.1861 4.28176 10.2206 5.15301L10.3882 9.38022Z" fill="black" fill-opacity="0.65"/>
<path d="M10.6503 12.3538C10.626 11.7426 10.6139 11.4371 10.7289 11.2071C10.8257 11.0136 10.9826 10.8567 11.1761 10.7599C11.4061 10.6449 11.7116 10.6571 12.3228 10.6813L14.4973 10.7675C15.6715 10.814 16.2586 10.8373 16.5294 11.0876C16.7543 11.2956 16.8716 11.5952 16.8474 11.9006C16.8184 12.2682 16.4029 12.6837 15.572 13.5146L13.4836 15.603C12.6527 16.4339 12.2372 16.8494 11.8696 16.8784C11.5642 16.9026 11.2645 16.7854 11.0566 16.5604C10.8062 16.2896 10.783 15.7025 10.7364 14.5283L10.6503 12.3538Z" fill="black" fill-opacity="0.65"/>
</svg>
