<svg width="30" height="30" viewBox="0 0 30 30" fill="none" xmlns="http://www.w3.org/2000/svg">
<path d="M21.6966 4.6875H8.30344C6.30938 4.6875 4.6875 6.30938 4.6875 8.30344V21.6966C4.6875 23.6906 6.30938 25.3125 8.30344 25.3125H21.6966C23.6906 25.3125 25.3125 23.6906 25.3125 21.6966V8.30344C25.3125 6.30938 23.6906 4.6875 21.6966 4.6875ZM23.4375 21.6966C23.4375 22.6566 22.6566 23.4375 21.6966 23.4375H8.30344C7.34344 23.4375 6.5625 22.6566 6.5625 21.6966V8.30344C6.5625 7.34344 7.34344 6.5625 8.30344 6.5625H21.6966C22.6566 6.5625 23.4375 7.34344 23.4375 8.30344V21.6966Z" fill="#DDDDDD"/>
</svg>
