<svg width="18" height="18" viewBox="0 0 18 18" fill="none" xmlns="http://www.w3.org/2000/svg">
<path d="M8.90417 8.04019C8.92397 8.53992 8.51346 8.95037 8.01372 8.93057L4.3904 8.787C3.64362 8.75743 3.28978 7.85291 3.81825 7.32444L7.29798 3.84471C7.82645 3.31624 8.73094 3.67008 8.76051 4.41686L8.90417 8.04019Z" fill="black"/>
<path d="M9.12883 10.589C9.108 10.0651 9.09763 9.80323 9.1962 9.60609C9.27917 9.44023 9.41366 9.30575 9.57951 9.22277C9.77666 9.1242 10.0385 9.13466 10.5624 9.1554L12.4263 9.22929C13.4327 9.26915 13.9359 9.28912 14.1681 9.50366C14.3608 9.68195 14.4614 9.93875 14.4406 10.2005C14.4158 10.5156 14.0596 10.8717 13.3474 11.5839L11.5574 13.374C10.8452 14.0862 10.489 14.4423 10.1739 14.4672C9.91217 14.4879 9.65529 14.3875 9.47709 14.1946C9.26246 13.9625 9.24257 13.4593 9.20263 12.4528L9.12883 10.589Z" fill="black"/>
</svg>
